<?xml version="1.0" encoding="utf-8"?>
<!-- Generator: Adobe Illustrator 16.0.0, SVG Export Plug-In . SVG Version: 6.00 Build 0)  -->
<!DOCTYPE svg PUBLIC "-//W3C//DTD SVG 1.0//EN" "http://www.w3.org/TR/2001/REC-SVG-20010904/DTD/svg10.dtd">
<svg version="1.0" id="Layer_1" xmlns="http://www.w3.org/2000/svg" xmlns:xlink="http://www.w3.org/1999/xlink" x="0px" y="0px"
	 width="442.477px" height="109.49px" viewBox="0 0 442.477 109.49" enable-background="new 0 0 442.477 109.49"
	 xml:space="preserve">
<path fill="#EF7D00" d="M71.242,58.986L50.508,38.252L29.772,58.986l20.735,20.733L71.242,58.986z M50.508,46.658l12.328,12.328
	L50.508,71.307L38.179,58.986L50.508,46.658z"/>
<polygon fill="#EF7D00" points="77.72,58.984 50.508,86.195 23.296,58.984 44.031,38.25 35.624,38.25 14.89,58.984 50.508,94.602 
	86.126,58.984 44.031,16.888 44.031,25.294 "/>
<polygon fill="#EF7D00" points="44.031,2 44.031,10.406 92.604,58.988 50.508,101.083 8.413,58.988 29.148,38.246 20.734,38.246 
	0,58.988 50.508,109.49 101.01,58.988 "/>
<path fill-rule="evenodd" clip-rule="evenodd" fill="#1B3E78" d="M303.402,61.11c1.482-8.288,8.31-13.776,15.551-13.776
	c6.668,0,10.68,3.921,10.68,10.509c-0.099,0.788-0.148,1.562-0.195,2.328c-0.042,0.334-0.092,0.64-0.146,0.953h-25.889V61.11z
	 M334.75,81.274c-5.117,1.942-12.703,3.537-17.731,3.537c-9.891,0-15.545-4.64-15.545-12.737c0-0.579,0-1.157,0.047-1.75h39.943
	c0.676-3.998,1.163-7.904,1.163-10.746c0-13.658-8.698-22.142-22.607-22.142c-9.96,0-17.265,2.913-23.569,9.479
	c-5.918,6.15-9.326,14.633-9.326,23.235c0,15.637,10.288,25.352,26.809,25.352c5.607,0,11.353-0.876,16.91-2.485
	C332.146,89.087,333.448,85.186,334.75,81.274z"/>
<path fill="#1B3E78" d="M178.292,55.919c-0.78-11.666-9.52-18.38-23.966-18.38c-4.478,0-11.479,0.78-18.081,2.152l-3.942,11.861
	c6.136-2.271,15.455-3.859,19.759-3.859c7.48,0,13.374,3.727,12.315,11.798c-3.818-0.278-7.488-0.479-9.613-0.479
	c-19.954,0-31.348,7.558-30.526,20.199c0.62,9.575,8.498,15.218,19.606,16.011c12.551,0.898,23.958-1.749,30.144-5.612
	c1.26-8.52,2.507-17.022,3.81-25.569C178.292,60.697,178.424,57.981,178.292,55.919 M161.187,83.187
	c-12.606,3.551-21.557,1.622-21.981-4.974c-0.438-6.895,5.273-10.259,17.537-10.259c2.703,0,5.502,0.383,6.478,0.689
	C162.545,73.485,161.862,78.339,161.187,83.187z"/>
<path fill="#1B3E78" d="M218.78,37.63c-10.586,0-18.331,2.535-24.258,7.968c-6.72,6.15-10.572,14.813-10.572,23.784
	c0,7.739,2.604,14.11,7.152,18.582c4.527,4.479,11.06,7.092,18.875,7.32c4.882,0.146,10.775-0.404,15.559-1.322l0.176-0.028
	l4.025-12.105c-4.248,1.442-9.806,2.57-14.586,2.215c-8.74-0.653-15.308-6.839-15.308-15.962c0-11.236,8.304-19.378,20.29-19.378
	c3.767,0,8.155,0.934,12.551,2.703c1.085-3.287,3.523-10.594,3.523-10.594C231.333,38.773,225.391,37.63,218.78,37.63"/>
<path fill="#1B3E78" d="M374.048,37.601c-14.244,0-23.855,6.797-23.855,16.911c0,7.39,4.103,10.948,12.16,15.287l1.603,0.852
	c4.924,2.632,7.911,4.219,7.911,7.556c0,3.962-4.191,6.227-11.589,6.227c-5.384,0-10.545-1.281-14.897-3.552l-3.648,10.949
	c6.329,2.271,13.33,3.511,20.092,3.511c15.024,0,25.172-7.119,25.172-17.67c0-7.376-4.298-11.222-11.737-15.295
	c-0.995-0.545-2.033-1.066-3.001-1.604c-4.826-2.549-7.529-3.956-7.529-7.111c0-3.579,3.72-5.808,9.66-5.808
	c4.632,0,9.703,1.268,14.292,3.461l3.532-10.592C385.824,38.688,379.625,37.601,374.048,37.601"/>
<path fill="#1B3E78" d="M270.619,37.63c-10.578,0-18.323,2.535-24.258,7.968c-6.721,6.15-10.572,14.813-10.572,23.784
	c0,7.739,2.604,14.11,7.152,18.582c4.535,4.479,11.061,7.092,18.874,7.32c4.883,0.146,10.776-0.404,15.56-1.322l0.174-0.028
	l4.033-12.105c-4.254,1.442-9.813,2.57-14.584,2.215c-8.748-0.653-15.316-6.839-15.316-15.962c0-11.236,8.302-19.378,20.29-19.378
	c3.767,0,8.155,0.934,12.551,2.703c1.085-3.287,3.523-10.594,3.523-10.594C283.17,38.773,277.229,37.63,270.619,37.63"/>
<path fill="#1B3E78" d="M422.312,37.601c-14.243,0-23.854,6.797-23.854,16.911c0,7.39,4.103,10.948,12.16,15.287l1.603,0.852
	c4.924,2.632,7.911,4.219,7.911,7.556c0,3.962-4.193,6.227-11.589,6.227c-5.384,0-10.545-1.281-14.898-3.552l-3.65,10.949
	c6.332,2.271,13.333,3.511,20.095,3.511c15.022,0,25.17-7.119,25.17-17.67c0-7.376-4.296-11.222-11.735-15.295
	c-1.003-0.545-2.033-1.066-3.001-1.604c-4.827-2.549-7.529-3.956-7.529-7.111c0-3.579,3.719-5.808,9.66-5.808
	c4.631,0,9.701,1.268,14.291,3.461l3.532-10.592C434.09,38.688,427.891,37.601,422.312,37.601"/>
</svg>
